<svg width="108" height="43" viewBox="0 0 108 43" fill="none" xmlns="http://www.w3.org/2000/svg">
<circle cx="10" cy="20" r="10" fill="#165E76"/>
<circle cx="30" cy="10" r="10" fill="#A9E2F5"/>
<circle cx="29" cy="33" r="10" fill="#182E36"/>
<path d="M57.19 17.9386C57.1019 17.0505 56.724 16.3607 56.0561 15.869C55.3883 15.3772 54.4819 15.1314 53.337 15.1314C52.5591 15.1314 51.9022 15.2415 51.3665 15.4616C50.8307 15.6745 50.4197 15.9717 50.1335 16.3533C49.8546 16.735 49.7152 17.168 49.7152 17.6523C49.7005 18.056 49.7849 18.4083 49.9684 18.7092C50.1592 19.0101 50.4197 19.2706 50.75 19.4908C51.0803 19.7036 51.4619 19.8907 51.8949 20.0522C52.3279 20.2063 52.7902 20.3384 53.282 20.4485L55.3075 20.9329C56.291 21.1531 57.1937 21.4466 58.0156 21.8136C58.8376 22.1805 59.5495 22.6319 60.1513 23.1676C60.7531 23.7034 61.2191 24.3345 61.5494 25.0611C61.887 25.7876 62.0594 26.6206 62.0668 27.56C62.0594 28.9397 61.7072 30.136 61.0099 31.1488C60.3201 32.1542 59.322 32.9358 58.0156 33.4936C56.7166 34.044 55.1497 34.3192 53.315 34.3192C51.4949 34.3192 49.9097 34.0404 48.5593 33.4826C47.2163 32.9248 46.1668 32.0992 45.4109 31.0057C44.6623 29.9048 44.2696 28.5434 44.233 26.9215H48.8455C48.8969 27.6774 49.1134 28.3086 49.495 28.815C49.884 29.314 50.4014 29.692 51.0472 29.9489C51.7004 30.1984 52.438 30.3232 53.2599 30.3232C54.0672 30.3232 54.7681 30.2057 55.3626 29.9709C55.9644 29.736 56.4304 29.4094 56.7607 28.9911C57.0909 28.5728 57.256 28.0921 57.256 27.549C57.256 27.0426 57.1056 26.617 56.8047 26.272C56.5111 25.9271 56.0781 25.6335 55.5057 25.3913C54.9406 25.1491 54.247 24.929 53.4251 24.7308L50.9702 24.1143C49.0694 23.652 47.5685 22.9291 46.4677 21.9457C45.3668 20.9622 44.8201 19.6375 44.8274 17.9716C44.8201 16.6065 45.1834 15.4139 45.9173 14.3938C46.6585 13.3737 47.675 12.5774 48.9666 12.005C50.2583 11.4325 51.7261 11.1463 53.37 11.1463C55.0433 11.1463 56.5038 11.4325 57.7514 12.005C59.0064 12.5774 59.9825 13.3737 60.6797 14.3938C61.3769 15.4139 61.7365 16.5955 61.7585 17.9386H57.19ZM65.273 34V11.4545H70.0397V21.3952H70.3369L78.4502 11.4545H84.1636L75.7971 21.5494L84.2627 34H78.5603L72.3845 24.7308L70.0397 27.593V34H65.273ZM85.325 11.4545H90.6642L95.8051 21.1641H96.0253L101.166 11.4545H106.505L98.282 26.0298V34H93.5484V26.0298L85.325 11.4545Z" fill="#182E36"/>
</svg>
